<mxfile host="app.diagrams.net" modified="2022-10-05T18:55:44.457Z" agent="5.0 (X11)" etag="xbx7awJfWFoOOcOo4tOf" version="20.4.0" type="github">
  <diagram id="J6NZqgV9PblDVv29JcQf" name="Page-1">
    <mxGraphModel dx="1350" dy="764" grid="1" gridSize="10" guides="1" tooltips="1" connect="1" arrows="1" fold="1" page="1" pageScale="1" pageWidth="850" pageHeight="1100" math="0" shadow="0">
      <root>
        <mxCell id="0" />
        <mxCell id="1" parent="0" />
        <mxCell id="0_zjpEYmv4Nr92xrDwBH-23" style="edgeStyle=orthogonalEdgeStyle;rounded=0;orthogonalLoop=1;jettySize=auto;html=1;entryX=0.5;entryY=0;entryDx=0;entryDy=0;" edge="1" parent="1" source="0_zjpEYmv4Nr92xrDwBH-1" target="0_zjpEYmv4Nr92xrDwBH-5">
          <mxGeometry relative="1" as="geometry" />
        </mxCell>
        <mxCell id="0_zjpEYmv4Nr92xrDwBH-1" value="Download Sniffer" style="swimlane;fontStyle=1;align=center;verticalAlign=top;childLayout=stackLayout;horizontal=1;startSize=26;horizontalStack=0;resizeParent=1;resizeParentMax=0;resizeLast=0;collapsible=1;marginBottom=0;" vertex="1" parent="1">
          <mxGeometry x="10" y="10" width="220" height="80" as="geometry" />
        </mxCell>
        <mxCell id="0_zjpEYmv4Nr92xrDwBH-3" value="" style="line;strokeWidth=1;fillColor=none;align=left;verticalAlign=middle;spacingTop=-1;spacingLeft=3;spacingRight=3;rotatable=0;labelPosition=right;points=[];portConstraint=eastwest;strokeColor=inherit;" vertex="1" parent="0_zjpEYmv4Nr92xrDwBH-1">
          <mxGeometry y="26" width="220" height="8" as="geometry" />
        </mxCell>
        <mxCell id="0_zjpEYmv4Nr92xrDwBH-4" value="+ downloadSniffLoop(): file, destination&#xa;+ sendToQuarantine(file, destination):&#xa;" style="text;strokeColor=none;fillColor=none;align=left;verticalAlign=top;spacingLeft=4;spacingRight=4;overflow=hidden;rotatable=0;points=[[0,0.5],[1,0.5]];portConstraint=eastwest;" vertex="1" parent="0_zjpEYmv4Nr92xrDwBH-1">
          <mxGeometry y="34" width="220" height="46" as="geometry" />
        </mxCell>
        <mxCell id="0_zjpEYmv4Nr92xrDwBH-22" style="edgeStyle=orthogonalEdgeStyle;rounded=0;orthogonalLoop=1;jettySize=auto;html=1;entryX=0.004;entryY=0.353;entryDx=0;entryDy=0;entryPerimeter=0;" edge="1" parent="1" source="0_zjpEYmv4Nr92xrDwBH-5" target="0_zjpEYmv4Nr92xrDwBH-16">
          <mxGeometry relative="1" as="geometry" />
        </mxCell>
        <mxCell id="0_zjpEYmv4Nr92xrDwBH-5" value="Quarantine" style="swimlane;fontStyle=1;align=center;verticalAlign=top;childLayout=stackLayout;horizontal=1;startSize=26;horizontalStack=0;resizeParent=1;resizeParentMax=0;resizeLast=0;collapsible=1;marginBottom=0;" vertex="1" parent="1">
          <mxGeometry x="10" y="130" width="210" height="120" as="geometry" />
        </mxCell>
        <mxCell id="0_zjpEYmv4Nr92xrDwBH-6" value="+ filesHeld: map(file, destination)&#xa;+ fileIsSafe: map(file, Boolean)&#xa;" style="text;strokeColor=none;fillColor=none;align=left;verticalAlign=top;spacingLeft=4;spacingRight=4;overflow=hidden;rotatable=0;points=[[0,0.5],[1,0.5]];portConstraint=eastwest;" vertex="1" parent="0_zjpEYmv4Nr92xrDwBH-5">
          <mxGeometry y="26" width="210" height="34" as="geometry" />
        </mxCell>
        <mxCell id="0_zjpEYmv4Nr92xrDwBH-7" value="" style="line;strokeWidth=1;fillColor=none;align=left;verticalAlign=middle;spacingTop=-1;spacingLeft=3;spacingRight=3;rotatable=0;labelPosition=right;points=[];portConstraint=eastwest;strokeColor=inherit;" vertex="1" parent="0_zjpEYmv4Nr92xrDwBH-5">
          <mxGeometry y="60" width="210" height="8" as="geometry" />
        </mxCell>
        <mxCell id="0_zjpEYmv4Nr92xrDwBH-8" value="+ sendToController(file):&#xa;+ deleteFile(file):&#xa;+ sendToDestination(file, destination):&#xa;" style="text;strokeColor=none;fillColor=none;align=left;verticalAlign=top;spacingLeft=4;spacingRight=4;overflow=hidden;rotatable=0;points=[[0,0.5],[1,0.5]];portConstraint=eastwest;" vertex="1" parent="0_zjpEYmv4Nr92xrDwBH-5">
          <mxGeometry y="68" width="210" height="52" as="geometry" />
        </mxCell>
        <mxCell id="0_zjpEYmv4Nr92xrDwBH-9" value="MalScan" style="swimlane;fontStyle=1;align=center;verticalAlign=top;childLayout=stackLayout;horizontal=1;startSize=26;horizontalStack=0;resizeParent=1;resizeParentMax=0;resizeLast=0;collapsible=1;marginBottom=0;" vertex="1" parent="1">
          <mxGeometry x="10" y="290" width="270" height="130" as="geometry" />
        </mxCell>
        <mxCell id="0_zjpEYmv4Nr92xrDwBH-10" value="+ APIGraph: graph&#xa;+ fileName: string&#xa;+ maliciousValue: int&#xa;" style="text;strokeColor=none;fillColor=none;align=left;verticalAlign=top;spacingLeft=4;spacingRight=4;overflow=hidden;rotatable=0;points=[[0,0.5],[1,0.5]];portConstraint=eastwest;" vertex="1" parent="0_zjpEYmv4Nr92xrDwBH-9">
          <mxGeometry y="26" width="270" height="54" as="geometry" />
        </mxCell>
        <mxCell id="0_zjpEYmv4Nr92xrDwBH-11" value="" style="line;strokeWidth=1;fillColor=none;align=left;verticalAlign=middle;spacingTop=-1;spacingLeft=3;spacingRight=3;rotatable=0;labelPosition=right;points=[];portConstraint=eastwest;strokeColor=inherit;" vertex="1" parent="0_zjpEYmv4Nr92xrDwBH-9">
          <mxGeometry y="80" width="270" height="8" as="geometry" />
        </mxCell>
        <mxCell id="0_zjpEYmv4Nr92xrDwBH-12" value="+ centralityAnalysis(APIGraph): maliciousValue&#xa;+ returnToController(): fileName, maliciousValue&#xa;" style="text;strokeColor=none;fillColor=none;align=left;verticalAlign=top;spacingLeft=4;spacingRight=4;overflow=hidden;rotatable=0;points=[[0,0.5],[1,0.5]];portConstraint=eastwest;" vertex="1" parent="0_zjpEYmv4Nr92xrDwBH-9">
          <mxGeometry y="88" width="270" height="42" as="geometry" />
        </mxCell>
        <mxCell id="0_zjpEYmv4Nr92xrDwBH-21" style="edgeStyle=orthogonalEdgeStyle;rounded=0;orthogonalLoop=1;jettySize=auto;html=1;entryX=1;entryY=0.167;entryDx=0;entryDy=0;entryPerimeter=0;" edge="1" parent="1" source="0_zjpEYmv4Nr92xrDwBH-13" target="0_zjpEYmv4Nr92xrDwBH-5">
          <mxGeometry relative="1" as="geometry" />
        </mxCell>
        <mxCell id="0_zjpEYmv4Nr92xrDwBH-24" style="edgeStyle=orthogonalEdgeStyle;rounded=0;orthogonalLoop=1;jettySize=auto;html=1;" edge="1" parent="1" source="0_zjpEYmv4Nr92xrDwBH-13" target="0_zjpEYmv4Nr92xrDwBH-10">
          <mxGeometry relative="1" as="geometry" />
        </mxCell>
        <mxCell id="0_zjpEYmv4Nr92xrDwBH-13" value="Controller" style="swimlane;fontStyle=1;align=center;verticalAlign=top;childLayout=stackLayout;horizontal=1;startSize=26;horizontalStack=0;resizeParent=1;resizeParentMax=0;resizeLast=0;collapsible=1;marginBottom=0;" vertex="1" parent="1">
          <mxGeometry x="270" y="50" width="350" height="210" as="geometry" />
        </mxCell>
        <mxCell id="0_zjpEYmv4Nr92xrDwBH-14" value="+ APIGraph: graph&#xa;+ fileName: string&#xa;+ ServerAnser: string&#xa;+ safetyBool: Boolean&#xa;" style="text;strokeColor=none;fillColor=none;align=left;verticalAlign=top;spacingLeft=4;spacingRight=4;overflow=hidden;rotatable=0;points=[[0,0.5],[1,0.5]];portConstraint=eastwest;" vertex="1" parent="0_zjpEYmv4Nr92xrDwBH-13">
          <mxGeometry y="26" width="350" height="74" as="geometry" />
        </mxCell>
        <mxCell id="0_zjpEYmv4Nr92xrDwBH-15" value="" style="line;strokeWidth=1;fillColor=none;align=left;verticalAlign=middle;spacingTop=-1;spacingLeft=3;spacingRight=3;rotatable=0;labelPosition=right;points=[];portConstraint=eastwest;strokeColor=inherit;" vertex="1" parent="0_zjpEYmv4Nr92xrDwBH-13">
          <mxGeometry y="100" width="350" height="8" as="geometry" />
        </mxCell>
        <mxCell id="0_zjpEYmv4Nr92xrDwBH-16" value="+ extractAPICalls(file): APIGraph&#xa;+ sendToServer(APIGraph, fileName):&#xa;+ waitForServerAnswer(): ServerAnswer&#xa;+ sendToMalScan(APIGraph, fileName):&#xa;+ determineSafety(maliciousValue, ServerAnswer): safteyBool&#xa;+ QuarantineExplorer(safetyBool, fileName):&#xa;" style="text;strokeColor=none;fillColor=none;align=left;verticalAlign=top;spacingLeft=4;spacingRight=4;overflow=hidden;rotatable=0;points=[[0,0.5],[1,0.5]];portConstraint=eastwest;" vertex="1" parent="0_zjpEYmv4Nr92xrDwBH-13">
          <mxGeometry y="108" width="350" height="102" as="geometry" />
        </mxCell>
        <mxCell id="0_zjpEYmv4Nr92xrDwBH-25" style="edgeStyle=orthogonalEdgeStyle;rounded=0;orthogonalLoop=1;jettySize=auto;html=1;entryX=0.75;entryY=1;entryDx=0;entryDy=0;" edge="1" parent="1" source="0_zjpEYmv4Nr92xrDwBH-12" target="0_zjpEYmv4Nr92xrDwBH-13">
          <mxGeometry relative="1" as="geometry">
            <mxPoint x="470" y="280" as="targetPoint" />
          </mxGeometry>
        </mxCell>
        <mxCell id="0_zjpEYmv4Nr92xrDwBH-28" style="edgeStyle=orthogonalEdgeStyle;rounded=0;orthogonalLoop=1;jettySize=auto;html=1;entryX=1;entryY=0.5;entryDx=0;entryDy=0;" edge="1" parent="1" source="0_zjpEYmv4Nr92xrDwBH-26" target="0_zjpEYmv4Nr92xrDwBH-14">
          <mxGeometry relative="1" as="geometry" />
        </mxCell>
        <mxCell id="0_zjpEYmv4Nr92xrDwBH-26" value="«interface»&lt;br&gt;&lt;b&gt;GUI&lt;/b&gt;" style="html=1;" vertex="1" parent="1">
          <mxGeometry x="690" y="100" width="110" height="50" as="geometry" />
        </mxCell>
      </root>
    </mxGraphModel>
  </diagram>
</mxfile>
